<svg width="50" height="50" viewBox="0 0 50 50" fill="none" xmlns="http://www.w3.org/2000/svg">
<g clip-path="url(#clip0_325_10)">
<rect width="50" height="50" fill="white"/>
<path d="M33.1818 18.375C32.9432 17.5455 32.608 16.8125 32.1761 16.1761C31.7443 15.5284 31.2159 14.983 30.5909 14.5398C29.9773 14.0852 29.2727 13.7386 28.4773 13.5C27.6932 13.2614 26.8239 13.142 25.8693 13.142C24.0852 13.142 22.517 13.5852 21.1648 14.4716C19.8239 15.358 18.7784 16.6477 18.0284 18.3409C17.2784 20.0227 16.9034 22.0795 16.9034 24.5114C16.9034 26.9432 17.2727 29.0114 18.0114 30.7159C18.75 32.4205 19.7955 33.7216 21.1477 34.6193C22.5 35.5057 24.0966 35.9489 25.9375 35.9489C27.608 35.9489 29.0341 35.6534 30.2159 35.0625C31.4091 34.4602 32.3182 33.6136 32.9432 32.5227C33.5795 31.4318 33.8977 30.142 33.8977 28.6534L35.3977 28.875H26.3977V23.3182H41.0057V27.7159C41.0057 30.7841 40.358 33.4205 39.0625 35.625C37.767 37.8182 35.983 39.5114 33.7102 40.7045C31.4375 41.8864 28.8352 42.4773 25.9034 42.4773C22.6307 42.4773 19.7557 41.7557 17.2784 40.3125C14.8011 38.858 12.8693 36.7955 11.483 34.125C10.108 31.4432 9.42045 28.2614 9.42045 24.5795C9.42045 21.75 9.82955 19.2273 10.6477 17.0114C11.4773 14.7841 12.6364 12.8977 14.125 11.3523C15.6136 9.80682 17.3466 8.63068 19.3239 7.82386C21.3011 7.01704 23.4432 6.61364 25.75 6.61364C27.7273 6.61364 29.5682 6.90341 31.2727 7.48295C32.9773 8.05114 34.4886 8.85795 35.8068 9.90341C37.1364 10.9489 38.2216 12.1932 39.0625 13.6364C39.9034 15.0682 40.4432 16.6477 40.6818 18.375H33.1818Z" fill="url(#paint0_linear_325_10)"/>
</g>
<defs>
<linearGradient id="paint0_linear_325_10" x1="25.5" y1="-4" x2="-4" y2="47" gradientUnits="userSpaceOnUse">
<stop stop-color="#74749C"/>
<stop offset="0.484375" stop-color="#2D2D3C"/>
<stop offset="1" stop-color="#232339"/>
</linearGradient>
<clipPath id="clip0_325_10">
<rect width="50" height="50" fill="white"/>
</clipPath>
</defs>
</svg>
