<svg width="50" height="50" viewBox="0 0 50 50" fill="none" xmlns="http://www.w3.org/2000/svg">
<path d="M40.625 0H9.375C4.19733 0 0 4.19733 0 9.375V40.625C0 45.8027 4.19733 50 9.375 50H40.625C45.8027 50 50 45.8027 50 40.625V9.375C50 4.19733 45.8027 0 40.625 0Z" fill="#261300"/>
<path d="M25.1514 31.6723H17.1252L15.5994 36.25H10.7318L19.0021 14.0332H23.244L31.5601 36.25H26.6925L25.1514 31.6723ZM18.3612 27.9645H23.9154L21.1231 19.6484L18.3612 27.9645ZM37.9992 36.25H33.5742V19.74H37.9992V36.25ZM33.3148 15.4675C33.3148 14.8063 33.5335 14.262 33.9709 13.8348C34.4186 13.4075 35.0238 13.194 35.7867 13.194C36.5395 13.194 37.1397 13.4075 37.5872 13.8348C38.0349 14.262 38.2587 14.8063 38.2587 15.4675C38.2587 16.1389 38.0298 16.6882 37.572 17.1155C37.1244 17.5427 36.5293 17.7563 35.7867 17.7563C35.0441 17.7563 34.444 17.5427 33.9862 17.1155C33.5386 16.6882 33.3148 16.1389 33.3148 15.4675Z" fill="#FF7C00"/>
</svg>
