<svg width="21" height="20" viewBox="0 0 21 20" fill="none" xmlns="http://www.w3.org/2000/svg">
<path d="M5.27853 18.1498L5.27836 18.1497L5.27825 18.1497L5.27824 18.1497L5.06033 18.0625L4.83136 18.1154L1.1344 18.9685L2.24997 15.6218L2.34015 15.3513L2.22803 15.0897L2.22798 15.0895L2.22791 15.0894L2.22782 15.0892L2.22782 15.0892L2.2262 15.0853L2.21828 15.0664C2.211 15.0488 2.1998 15.0215 2.18524 14.9851C2.15612 14.9123 2.11362 14.8033 2.06218 14.6633C1.95918 14.3829 1.82099 13.9799 1.68268 13.4959C1.40394 12.5203 1.13462 11.2489 1.13462 10C1.13462 4.89137 5.27598 0.75 10.3846 0.75C15.4932 0.75 19.6346 4.89137 19.6346 10C19.6346 15.1086 15.4932 19.25 10.3846 19.25C9.2345 19.25 7.96427 18.9819 6.95648 18.7007C6.45801 18.5616 6.03482 18.4224 5.73726 18.3184C5.58865 18.2665 5.47186 18.2235 5.3932 18.1939C5.35389 18.1791 5.32414 18.1676 5.30475 18.1601L5.28356 18.1518L5.27898 18.15L5.27853 18.1498Z" stroke="white" stroke-width="1.5"/>
<path d="M8.36456 7.80332L7.33368 5.59978C7.23059 5.37942 6.55765 5.37024 6.23407 5.39319C6.14244 5.46205 5.83547 5.75127 5.34065 6.35725C4.84582 6.96322 4.99702 8.21649 5.13447 8.76738C6.47281 11.7813 9.22001 13.6039 10.4263 14.1385C11.0219 14.3681 12.4468 14.772 13.3815 14.5517C14.5498 14.2762 14.8247 13.6565 14.9622 13.0368C15.0721 12.541 14.9164 12.3252 14.8247 12.2793L13.3815 11.5218C13.1524 11.43 12.653 11.2464 12.4881 11.2464C12.2819 11.2464 12.1444 11.5907 11.7321 12.0727C11.4022 12.4583 11.2281 12.5547 11.1823 12.5547C9.0512 11.8293 7.86604 10.1407 7.53985 9.38713C7.47113 9.18054 7.60858 9.04282 8.02093 8.56079C8.35081 8.17517 8.38746 7.89514 8.36456 7.80332Z" fill="white"/>
</svg>
