<svg width="50" height="50" viewBox="0 0 50 50" fill="none" xmlns="http://www.w3.org/2000/svg">
<rect x="2" y="2" width="46" height="46" rx="10" fill="white"/>
<path fill-rule="evenodd" clip-rule="evenodd" d="M36.7666 19.6486L27.0786 11.9569C26.483 11.7804 25.1461 11.6392 24.5637 12.4863C23.9813 13.3334 24.4534 13.9423 24.7623 14.1409L29.064 17.7808H15.4969C14.9013 17.8249 13.6835 18.2044 13.5776 19.3692C13.4718 20.534 14.5924 20.9134 15.166 20.9575H21.7179L13.5776 27.3771L9.60678 30.5538C9.12145 31.1274 8.36257 32.4863 9.20969 33.3334C10.0568 34.1805 11.3716 33.8629 11.9231 33.5981L18.8733 28.0905C18.8725 28.1394 18.8722 28.1885 18.8722 28.2376C18.8722 33.9761 23.9982 38.628 30.3215 38.628C36.6448 38.628 41.7708 33.9761 41.7708 28.2376C41.7708 24.6682 39.7876 21.5192 36.7666 19.6486Z" fill="#EA7600"/>
<path d="M37.1538 27.243C37.1538 30.7154 34.0426 33.5302 30.2048 33.5302C26.3669 33.5302 23.2557 30.7154 23.2557 27.243C23.2557 23.7707 26.3669 20.9558 30.2048 20.9558C34.0426 20.9558 37.1538 23.7707 37.1538 27.243Z" fill="white"/>
<path d="M34.7711 26.9785C34.7711 29.2081 32.7859 31.0155 30.337 31.0155C27.8881 31.0155 25.9028 29.2081 25.9028 26.9785C25.9028 24.7489 27.8881 22.9414 30.337 22.9414C32.7859 22.9414 34.7711 24.7489 34.7711 26.9785Z" fill="#265787"/>
</svg>
