<svg width="50" height="50" viewBox="0 0 50 50" fill="none" xmlns="http://www.w3.org/2000/svg">
<path d="M40.625 0H9.375C4.19733 0 0 4.19733 0 9.375V40.625C0 45.8027 4.19733 50 9.375 50H40.625C45.8027 50 50 45.8027 50 40.625V9.375C50 4.19733 45.8027 0 40.625 0Z" fill="#00005B"/>
<path d="M20.7764 31.6724H12.7502L11.2244 36.25H6.35681L14.6271 14.0332H18.869L27.1851 36.25H22.3175L20.7764 31.6724ZM13.9862 27.9645H19.5404L16.7481 19.6485L13.9862 27.9645ZM36.5692 36.5552C34.1481 36.5552 32.1747 35.8126 30.6488 34.3274C29.1331 32.8422 28.3752 30.8636 28.3752 28.3918V27.9645C28.3752 26.3064 28.6957 24.8263 29.3366 23.5242C29.9774 22.212 30.8827 21.2048 32.0526 20.503C33.2326 19.7909 34.5754 19.4348 36.0809 19.4348C38.3393 19.4348 40.1143 20.1469 41.4062 21.5711C42.7083 22.9952 43.3594 25.0145 43.3594 27.6288V29.4293H32.8461C32.9885 30.5076 33.4158 31.3723 34.1278 32.0233C34.8501 32.6744 35.7605 32.9999 36.8591 32.9999C38.5579 32.9999 39.8854 32.3845 40.8417 31.1536L43.0084 33.5797C42.3472 34.5156 41.452 35.248 40.3229 35.777C39.1938 36.2958 37.9425 36.5552 36.5692 36.5552ZM36.0657 23.0054C35.1908 23.0054 34.4788 23.3004 33.9294 23.8904C33.3903 24.4804 33.0444 25.3247 32.8919 26.4233H39.0259V26.0724C39.0056 25.0958 38.7411 24.3431 38.2324 23.8141C37.7238 23.275 37.0016 23.0054 36.0657 23.0054Z" fill="#9999FF"/>
</svg>
